HIERARCHY
ROOT Hips
{
	OFFSET 0.000000 0.000000 0.000000 
	CHANNELS 6 Xposition Yposition Zposition Yrotation Zrotation Xrotation 
	JOINT Lumbar
	{
		OFFSET 0.000000 0.000000 0.000000 
		CHANNELS 3 Zrotation Xrotation Yrotation
		JOINT Neck
		{
			OFFSET 0.000000 0.445665 0.000000 
			CHANNELS 3 Zrotation Xrotation Yrotation
			End Site
			{
				OFFSET 0.000000 0.227535 0.000000 
			}
		}
		JOINT RightShoulder
		{
			OFFSET 0.019635 0.377685 0.194865 
			CHANNELS 3 Zrotation Xrotation Yrotation
			JOINT RightElbow
			{
				OFFSET 0.000000 -0.243375 0.000000 
				CHANNELS 2 Zrotation Yrotation
				JOINT RightWrist
				{
					OFFSET 0.000000 -0.264825 0.000000 
					CHANNELS 2 Zrotation Xrotation
					End Site
					{
						OFFSET 0.006600 -0.176220 0.000990 
					}
				}
			}
		}
		JOINT LeftShoulder
		{
			OFFSET 0.019635 0.377685 -0.194865 
			CHANNELS 3 Zrotation Xrotation Yrotation
			JOINT LeftElbow
			{
				OFFSET 0.000000 -0.243375 0.000000 
				CHANNELS 2 Zrotation Yrotation
				JOINT LeftWrist
				{
					OFFSET 0.000000 -0.264825 0.000000 
					CHANNELS 2 Zrotation Xrotation
					End Site
					{
						OFFSET 0.006600 -0.176220 -0.000990 
					}
				}
			}
		}
	}
	JOINT RightHip
	{
		OFFSET 0.052140 -0.069960 0.075570 
		CHANNELS 3 Zrotation Xrotation Yrotation
		JOINT RightKnee
		{
			OFFSET 0.000000 -0.402270 0.000000 
			CHANNELS 1 Zrotation
			JOINT RightAnkle
			{
				OFFSET 0.000000 -0.404085 0.000000 
				CHANNELS 3 Zrotation Xrotation Yrotation
				End Site
				{
					OFFSET 0.204105 -0.089430 0.008415 
				}
			}
		}
	}
	JOINT LeftHip
	{
		OFFSET 0.052140 -0.069960 -0.075570 
		CHANNELS 3 Zrotation Xrotation Yrotation
		JOINT LeftKnee
		{
			OFFSET 0.000000 -0.402270 0.000000 
			CHANNELS 1 Zrotation
			JOINT LeftAnkle
			{
				OFFSET 0.000000 -0.404085 0.000000 
				CHANNELS 3 Zrotation Xrotation Yrotation
				End Site
				{
					OFFSET 0.204105 -0.089430 -0.008415 
				}
			}
		}
	}
}
MOTION
Frames: 11
Frame Time: 0.02
0 0.95578 0 173.67723 0 -4.43882 5.22153 5.35463 -0.47027 -31.21594 3.54244 3.56337 33.6846 -76.57229 -66.49294 24.11946 65.74494 -34.79127 -1.95964 39.42609 66.26454 63.29695 16.45291 -87.13219 -25.66934 4.73109 -1.06575 5.0302 -5.7047 -8.02549 1.02164 -5.02781 -10.69046 -1.15702 6.63375 1.78857 -5.84167 4.22874 5.70349 9.64224
-0.00076 0.95575 -0.00033 173.58361 0 -4.44188 5.3039 5.32526 -0.40792 -31.27325 3.54254 3.63412 32.67638 -76.69579 -67.45985 24.18364 65.68458 -34.80271 -1.95151 38.81596 66.70099 63.75339 16.67506 -86.75693 -25.96255 4.59208 -1.13028 5.0477 -5.62045 -7.9697 1.01841 -5.02687 -10.68576 -1.24589 6.6478 1.90504 -5.79573 4.24785 5.6904 9.62837
-0.00152 0.95572 -0.00066 173.49104 0 -4.44488 5.38594 5.2958 -0.34586 -31.32971 3.54226 3.70389 31.66527 -76.81747 -68.42946 24.24763 65.62508 -34.81474 -1.9435 38.20227 67.13726 64.21139 16.8974 -86.38125 -26.25623 4.45392 -1.19457 5.06509 -5.53722 -7.91436 1.01536 -5.02598 -10.68108 -1.33426 6.66174 2.0204 -5.75013 4.26685 5.67751 9.61457
-0.00228 0.95568 -0.00099 173.4013 0 -4.44771 5.46734 5.26588 -0.28408 -31.38357 3.54074 3.77052 30.63704 -76.93402 -69.41617 24.31129 65.56831 -34.82991 -1.93581 37.57404 67.5765 64.676 17.12214 -86.00089 -26.55521 4.31826 -1.25855 5.08224 -5.45724 -7.86001 1.01276 -5.02519 -10.67619 -1.42159 6.67549 2.13338 -5.70518 4.28542 5.66526 9.60048
-0.00304 0.95565 -0.00133 173.29607 0 -4.4515 5.55198 5.23861 -0.22054 -31.45145 3.5461 3.85392 29.70458 -77.07886 -70.30855 24.37648 65.4969 -34.82925 -1.9263 37.02961 67.99933 65.10067 17.33351 -85.6461 -26.82681 4.16992 -1.3242 5.10071 -5.36 -7.80005 1.00754 -5.02379 -10.67213 -1.51456 6.69038 2.26007 -5.65646 4.30606 5.64959 9.58738
-0.00379 0.95562 -0.00165 173.22406 0 -4.45321 5.62978 5.2056 -0.16097 -31.48944 3.53671 3.90167 28.5671 -77.16298 -71.40207 24.43851 65.45663 -34.86154 -1.92073 36.3039 68.45689 65.61271 17.57341 -85.23708 -27.15556 4.0482 -1.38623 5.11633 -5.2994 -7.75227 1.00803 -5.02373 -10.66652 -1.59541 6.70277 2.35691 -5.61599 4.32241 5.64118 9.57259
-0.00448 0.95561 -0.00191 173.24219 0 -4.44934 5.68916 5.15657 -0.10928 -31.4442 3.48632 3.84939 26.84032 -77.08157 -73.08009 24.49195 65.50377 -34.99344 -1.92569 35.07802 69.02281 66.36071 17.89796 -84.66521 -27.6615 4.00213 -1.43962 5.12446 -5.34162 -7.73602 1.02337 -5.027 -10.6546 -1.64464 6.70883 2.3772 -5.59625 4.32595 5.65327 9.54916
-0.00515 0.9556 -0.00215 173.29414 0 -4.44332 5.74157 5.10174 -0.06202 -31.36889 3.42095 3.7613 24.90995 -76.93825 -74.95691 24.54215 65.58233 -35.15706 -1.93466 33.66841 69.62202 67.1981 18.25061 -84.04021 -28.22214 3.98251 -1.48911 5.12963 -5.42052 -7.73246 1.04463 -5.03168 -10.64148 -1.68132 6.71228 2.36643 -5.5852 4.32533 5.67263 9.52466
-0.00583 0.95559 -0.0024 173.33179 0 -4.43814 5.79697 5.04956 -0.01477 -31.30765 3.36267 3.69061 23.08422 -76.82193 -76.72707 24.59393 65.64543 -35.30083 -1.94206 32.34003 70.19874 67.99983 18.58699 -83.44751 -28.74584 3.94933 -1.53962 5.13591 -5.48169 -7.72443 1.0638 -5.03597 -10.63021 -1.72262 6.71657 2.36588 -5.57151 4.32725 5.68838 9.50331
-0.00652 0.95559 -0.00266 173.36517 0 -4.43354 5.85325 4.99722 0.04065 -31.24453 3.30359 3.61535 21.20328 -76.71096 -78.56912 24.64557 65.71275 -35.46793 -1.9485 31.01833 70.80685 68.78307 18.93804 -82.82111 -29.32052 3.9226 -1.59351 5.14324 -5.54754 -7.71085 1.08052 -5.03923 -10.61341 -1.76855 6.72231 2.38123 -5.55232 4.32646 5.70537 9.47104
-0.00717 0.95557 -0.00289 173.41515 0 -4.42724 5.90585 4.94397 0.07846 -31.17842 3.24214 3.54089 19.39439 -76.57344 -80.30455 24.6963 65.77968 -35.59344 -1.95778 29.64288 71.35697 69.62284 19.26527 -82.2515 -29.80195 3.88881 -1.63917 5.14763 -5.61209 -7.71193 1.10367 -5.04495 -10.60786 -1.80179 6.7244 2.35678 -5.54661 4.33027 5.72156 9.46087
